<svg width="24" height="25" viewBox="0 0 24 25" fill="none" xmlns="http://www.w3.org/2000/svg">
<path d="M12 24.1213C10.34 24.1213 8.78 23.8107 7.32 23.1897C5.86 22.5686 4.59 21.7257 3.51 20.661C2.43 19.5963 1.575 18.3443 0.945 16.905C0.315 15.4657 0 13.9278 0 12.2913C0 10.6549 0.315 9.11698 0.945 7.67768C1.575 6.23837 2.43 4.98637 3.51 3.92168C4.59 2.85698 5.86 2.0141 7.32 1.39303C8.78 0.771961 10.34 0.461426 12 0.461426C13.66 0.461426 15.22 0.771961 16.68 1.39303C18.14 2.0141 19.41 2.85698 20.49 3.92168C21.57 4.98637 22.425 6.23837 23.055 7.67768C23.685 9.11698 24 10.6549 24 12.2913C24 13.9278 23.685 15.4657 23.055 16.905C22.425 18.3443 21.57 19.5963 20.49 20.661C19.41 21.7257 18.14 22.5686 16.68 23.1897C15.22 23.8107 13.66 24.1213 12 24.1213ZM10.71 22.3172V19.8921C10.01 19.8921 9.42 19.6358 8.94 19.1231C8.46 18.6105 8.22 18.0091 8.22 17.3191V16.0178L2.07 9.95494C1.97 10.3493 1.9 10.7387 1.86 11.1231C1.82 11.5076 1.8 11.897 1.8 12.2913C1.8 14.8545 2.645 17.0923 4.335 19.0048C6.025 20.9173 8.15 22.0215 10.71 22.3172ZM19.53 19.1231C19.97 18.6499 20.355 18.1472 20.685 17.6148C21.015 17.0825 21.295 16.5255 21.525 15.9438C21.755 15.3622 21.925 14.7658 22.035 14.1546C22.145 13.5433 22.2 12.9223 22.2 12.2913C22.2 10.2014 21.62 8.30368 20.46 6.5982C19.3 4.89272 17.75 3.64565 15.81 2.85698V3.38933C15.81 4.07941 15.57 4.68076 15.09 5.19339C14.61 5.70602 14.02 5.96234 13.32 5.96234H10.71V8.53535C10.71 8.87053 10.575 9.14656 10.305 9.36344C10.035 9.58032 9.73 9.68876 9.39 9.68876H6.9V12.2913H14.64C14.98 12.2913 15.26 12.4195 15.48 12.6758C15.7 12.9321 15.81 13.2279 15.81 13.5631V17.3191H17.1C17.68 17.3191 18.19 17.4866 18.63 17.8218C19.07 18.157 19.37 18.5908 19.53 19.1231Z" fill="white"/>
</svg>
