<svg width="196" height="43" viewBox="0 0 196 43" fill="none" xmlns="http://www.w3.org/2000/svg">
<path d="M24.3222 19.0998C24.1977 18.647 23.9968 18.2351 23.7341 17.8934C23.4713 17.5516 23.1531 17.2885 22.802 17.1227C22.3861 16.9345 21.5192 16.5426 15.6199 17.6349C9.10916 18.8424 8.88873 19.4378 8.40793 20.7439C8.14721 21.4408 8.10295 22.239 8.28415 22.9763C8.46535 23.7136 8.85845 24.3347 9.38352 24.7134C9.6562 24.8996 9.95777 25.0053 10.2663 25.0228C10.5749 25.0403 10.8826 24.9692 11.167 24.8146C11.6458 24.5585 11.3586 24.6596 11.3336 24.6724C14.007 23.8691 16.7204 23.3031 19.4544 22.9784C19.5541 22.9643 19.4374 23.1346 19.3905 23.319C19.2457 24.0976 19.0395 24.8553 18.7751 25.5803C18.6274 25.8833 18.4083 26.1179 18.1496 26.25C15.9002 27.4281 11.8174 29.3654 9.79345 29.4653C8.67836 29.5417 7.57327 29.161 6.63768 28.3785C5.7021 27.5959 4.98449 26.4519 4.58847 25.1117C4.2962 24.2461 4.12861 22.9348 5.10318 19.7567C5.95805 16.9742 9.11114 13.2787 10.4588 11.7011C10.7072 11.4091 10.9217 11.1582 11.0903 10.9533C13.4683 8.04789 15.213 6.78148 16.1247 6.50873C16.5645 7.35111 16.8965 8.2784 17.1082 9.2554C17.1778 9.61926 17.3039 9.96131 17.4791 10.261C17.6543 10.5606 17.8748 10.8117 18.1275 10.9992C18.3802 11.1866 18.6598 11.3065 18.9496 11.3517C19.2393 11.3968 19.5332 11.3663 19.8135 11.2619C20.3812 11.0127 20.852 10.4918 21.1278 9.80784C21.4036 9.12387 21.463 8.32962 21.2938 7.59075C20.9237 5.87746 19.4604 0.300933 16.1796 0.536543C14.008 0.691482 11.3147 2.71339 8.17353 6.55485C8.03886 6.71875 7.84036 6.95306 7.60993 7.22069C5.76453 9.38343 2.32907 13.408 1.07819 17.4799C-0.193641 21.6262 -0.334246 24.7403 0.624363 27.5779C1.3485 29.9684 2.63798 32.0075 4.31164 33.4086C5.98529 34.8096 7.95896 35.5022 9.95509 35.3889C12.6327 34.9715 15.2539 34.0911 17.7476 32.7715V39.5018C17.7308 39.8826 17.7748 40.2638 17.8767 40.6221C17.9787 40.9804 18.1366 41.3082 18.3407 41.5854C18.5448 41.8626 18.7908 42.0835 19.0637 42.2344C19.3366 42.3854 19.6306 42.4632 19.9277 42.4632C20.2249 42.4632 20.5188 42.3854 20.7917 42.2344C21.0646 42.0835 21.3107 41.8626 21.5148 41.5854C21.7189 41.3082 21.8767 40.9804 21.9786 40.6221C22.0806 40.2638 22.1246 39.8826 22.1078 39.5018V29.2284C25.0714 21.7568 24.5716 19.9667 24.3222 19.0998Z" fill="#67CC00"/>
<path d="M36.7412 22.097L36.6265 21.9613C37.3203 21.4624 37.9733 20.8751 38.5756 20.2083C40.6544 17.7011 41.0005 12.5164 40.8778 9.84917C40.6843 5.63893 37.5073 1.35059 34.5846 1.35059C32.6381 1.58251 30.7144 2.06204 28.8419 2.78215C28.1744 3.05126 27.614 3.64148 27.278 4.42918C26.942 5.21687 26.8565 6.14095 27.0393 7.00778C27.1593 7.66772 27.434 8.26458 27.8264 8.71792C28.2188 9.17125 28.71 9.45924 29.2339 9.54311C29.1429 10.4585 29.0012 11.3644 28.81 12.2539C28.4486 13.7607 28.1817 15.3022 28.012 16.8637L27.6678 16.8227C27.3259 16.7943 26.9831 16.8531 26.6591 16.9957C26.335 17.1383 26.0362 17.3619 25.7799 17.6536C25.5235 17.9453 25.3147 18.2993 25.1655 18.6951C25.0164 19.091 24.9297 19.5208 24.9107 19.9599C24.8421 20.8087 25.0238 21.6597 25.4202 22.3448C25.8165 23.0299 26.3985 23.4994 27.0513 23.6605C26.8156 27.1946 26.7446 30.7436 26.8389 34.2885C26.8288 34.669 26.8792 35.048 26.987 35.4026C27.0948 35.7572 27.2577 36.0799 27.4658 36.3511C27.6739 36.6222 27.9228 36.8361 28.1975 36.9797C28.4721 37.1233 28.7666 37.1936 29.0631 37.1862C29.3596 37.1789 29.6518 37.0942 29.9219 36.9372C30.192 36.7801 30.4344 36.5541 30.6343 36.2729C30.8341 35.9917 30.9872 35.6612 31.0843 35.3015C31.1814 34.9419 31.2204 34.5606 31.199 34.181C31.1581 31.1949 31.18 27.6876 31.2648 25.7733L33.608 27.5416L39.0943 34.0414C39.3409 34.3388 39.6328 34.5672 39.9516 34.7125C40.2704 34.8577 40.6092 34.9166 40.9467 34.8853C41.2841 34.854 41.6128 34.7333 41.912 34.5307C42.2113 34.3282 42.4746 34.0482 42.6853 33.7085C43.1302 33.0059 43.3522 32.1138 43.3069 31.2103C43.2616 30.3067 42.9523 29.4584 42.4409 28.8349L36.7412 22.097ZM35.8005 10.2807C35.9037 11.9207 35.687 13.5679 35.1701 15.0735C34.3164 15.874 33.3915 16.5411 32.415 17.0609C32.5228 16.1815 32.6693 15.3106 32.8539 14.4525C33.2988 12.4661 33.6052 10.4328 33.7696 8.37662C34.0108 8.32147 34.2542 8.28426 34.4988 8.26521C34.8113 8.47024 35.0882 8.75459 35.3127 9.10103C35.5371 9.44747 35.7044 9.84881 35.8045 10.2807H35.8005Z" fill="#67CC00"/>
<path d="M59.2374 10.6187C60.0065 10.3412 60.6617 9.6916 61.0653 8.80653C61.4688 7.92145 61.5891 6.86994 61.401 5.87327C61.3277 5.38234 61.1783 4.91533 60.9617 4.49997C60.7451 4.08461 60.4656 3.72936 60.14 3.45535C59.8143 3.18135 59.4491 2.99416 59.0659 2.90491C58.6828 2.81566 58.2896 2.82617 57.9097 2.93582L47.0079 6.88228C46.493 7.07972 46.0262 7.44358 45.6522 7.93901C45.2783 8.43444 45.0098 9.04483 44.8723 9.71172C44.7349 10.3786 44.7331 11.0796 44.8672 11.7476C45.0013 12.4156 45.2668 13.0282 45.6383 13.5267C45.5665 15.4756 45.4668 17.2145 45.361 18.0084C45.1291 18.5543 45.0112 19.1679 45.0189 19.7896C44.981 19.9706 44.9421 20.1549 44.9022 20.3428C43.9695 24.7758 43.6822 26.4763 43.8228 27.8144C44.1101 30.5406 46.9331 34.1682 48.7525 34.7866C50.8698 35.3643 53.0482 35.4756 55.1945 35.1157C55.8652 34.8611 56.433 34.2825 56.7782 33.5016C57.1235 32.7207 57.2195 31.7984 57.0459 30.9285C56.9776 30.4995 56.8427 30.0926 56.6491 29.7321C56.4555 29.3716 56.2073 29.065 55.9193 28.8304C55.6313 28.5959 55.3094 28.4383 54.9728 28.3672C54.6363 28.296 54.292 28.3127 53.9606 28.4163L54.0045 28.4009C52.7035 28.4843 51.3993 28.389 50.1141 28.1166C49.6689 27.7033 49.2737 27.208 48.9411 26.6466C49.0728 25.7503 49.383 24.2137 49.6274 23.0471L57.5237 22.3864C58.2161 22.3019 58.8546 21.8702 59.3006 21.185C59.7466 20.4999 59.964 19.6165 59.9058 18.7268C59.8961 18.2867 59.8186 17.8535 59.6776 17.4522C59.5367 17.0509 59.3352 16.6894 59.0847 16.3887C58.8342 16.088 58.5398 15.854 58.2184 15.7004C57.8971 15.5468 57.5551 15.4765 57.2125 15.4936L50.6288 16.0455C50.6717 15.2618 50.7057 14.4602 50.7286 13.6958L59.2374 10.6187Z" fill="#67CC00"/>
<path d="M79.9354 5.87473C79.8621 5.3838 79.7127 4.91676 79.4961 4.5014C79.2795 4.08603 79 3.73083 78.6744 3.45682C78.3487 3.18281 77.9835 2.99562 77.6003 2.90638C77.2172 2.81713 76.824 2.82763 76.4441 2.93729L64.0889 6.88375C63.5739 7.08103 63.107 7.44485 62.733 7.94032C62.359 8.43579 62.0905 9.0463 61.9531 9.7133C61.8157 10.3803 61.8141 11.0814 61.9484 11.7494C62.0828 12.4174 62.3486 13.0299 62.7203 13.5282C62.6475 15.4771 62.5477 17.216 62.443 18.0099C62.2099 18.5561 62.0916 19.1709 62.0999 19.7936L61.9842 20.3442C61.0505 24.7773 60.7632 26.4777 60.9039 27.8158C61.1912 30.542 64.0141 34.1696 65.8335 34.7881C67.9508 35.3658 70.1292 35.4771 72.2755 35.1172C72.9462 34.8626 73.514 34.2839 73.8592 33.503C74.2045 32.7222 74.3004 31.7998 74.1269 30.93C74.0588 30.5009 73.9239 30.0939 73.7303 29.7333C73.5368 29.3727 73.2886 29.0659 73.0005 28.8314C72.7125 28.5968 72.3905 28.4393 72.0539 28.3682C71.7173 28.2971 71.373 28.3139 71.0416 28.4177L71.0854 28.4023C69.7805 28.4858 68.4723 28.3901 67.1832 28.1168C66.7981 27.796 66.4477 27.4115 66.1408 26.9733C66.0022 26.7889 66.0191 26.6135 66.0959 26.1615C66.2395 25.3279 66.466 24.2049 66.6595 23.2701L66.7064 23.0499L66.8251 23.0397L74.6057 22.3879C75.2981 22.3034 75.9366 21.8717 76.3826 21.1865C76.8286 20.5013 77.046 19.618 76.9877 18.7282C76.9781 18.2882 76.9006 17.855 76.7597 17.4536C76.6187 17.0523 76.4172 16.6908 76.1667 16.3901C75.9162 16.0894 75.6218 15.8555 75.3004 15.7019C74.979 15.5482 74.6371 15.4779 74.2944 15.495L67.7109 16.0469C67.7518 15.2991 67.7847 14.5334 67.8106 13.7997L77.7808 10.6164C78.5477 10.3367 79.2004 9.6867 79.6021 8.80268C80.0038 7.91866 80.1233 6.86933 79.9354 5.87473Z" fill="#67CC00"/>
<path d="M85.9746 2.92725C85.9846 2.95699 86.0036 3.02164 86.0296 3.11733C86.0294 3.1225 86.0294 3.12767 86.0296 3.13284L85.9746 2.92725Z" fill="#67CC00"/>
<path d="M94.363 2.17078C94.0686 2.17061 93.7771 2.24505 93.5052 2.38981C93.2333 2.53457 92.9863 2.7468 92.7785 3.01435C92.5706 3.2819 92.4059 3.59949 92.2938 3.94892C92.1818 4.29835 92.1246 4.67276 92.1256 5.05063L91.7634 19.136C91.7445 19.7135 91.7166 20.4677 91.6837 21.3128C91.4562 20.6725 91.2627 20.1514 91.131 19.8249C90.8386 19.1651 90.5175 18.5268 90.1694 17.9131C89.2341 16.2409 88.3911 14.4866 87.6467 12.6631C87.2193 11.4757 86.8585 10.2506 86.5674 8.99709C86.6264 7.00981 86.445 5.02278 86.0297 3.10684C85.9275 2.69219 85.7607 2.30842 85.5397 1.9788C85.3186 1.64917 85.0478 1.3805 84.7436 1.189C84.4394 0.997512 84.1081 0.887172 83.7697 0.864663C83.4313 0.842154 83.0929 0.907955 82.7749 1.05806C82.1277 1.40476 81.6091 2.0573 81.326 2.88086C81.0429 3.70442 81.017 4.63607 81.2537 5.48341L81.2317 5.39764C81.4843 6.99448 81.5629 8.62863 81.4651 10.2532C81.3817 14.3851 81.0801 18.5049 80.5624 22.5843C80.0526 25.5294 79.5649 30.7794 79.5459 31.0035C79.4481 31.8891 79.6246 32.7887 80.0374 33.5092C80.4503 34.2298 81.0667 34.7139 81.7544 34.8578C82.0947 34.9046 82.4389 34.8639 82.7668 34.738C83.0947 34.6121 83.3998 34.4035 83.6642 34.1246C83.9286 33.8456 84.147 33.5018 84.3067 33.1132C84.4664 32.7246 84.5642 32.2991 84.5944 31.8614C84.5944 31.8102 85.0681 26.7472 85.515 24.167C85.6946 23.1298 85.8552 21.7264 85.9958 20.1719C86.2263 20.6111 86.4467 21.0234 86.6402 21.3858C86.9026 21.8762 87.2298 22.487 87.3096 22.6663C87.8672 24.0543 90.0647 30.581 90.8647 32.9767C90.9431 33.2054 91.0437 33.4205 91.164 33.617C91.1488 33.9899 91.1921 34.363 91.2913 34.714C91.3904 35.0651 91.5435 35.387 91.7413 35.6608C91.9392 35.9346 92.1778 36.1546 92.4431 36.3079C92.7083 36.4611 92.9949 36.5445 93.2857 36.5531C93.5765 36.5616 93.8657 36.4952 94.1362 36.3578C94.4066 36.2203 94.6529 36.0145 94.8603 35.7527C95.0677 35.4909 95.2321 35.1782 95.3437 34.8334C95.4553 34.4885 95.5119 34.1185 95.5101 33.7451C95.5301 33.3135 95.9969 23.1503 96.1186 19.3831L96.4827 5.19404C96.5107 4.43333 96.3038 3.68912 95.907 3.12306C95.5101 2.557 94.9552 2.21479 94.363 2.17078Z" fill="#67CC00"/>
<path d="M116.084 17.6297C118.658 15.5335 118.787 10.1926 118.632 8.48698C118.31 4.99766 114.77 2.45973 112.447 2.03973C109.925 1.48964 107.347 1.51436 104.832 2.11272C102.788 2.80675 98.8131 4.76464 98.6475 4.84787C98.0004 5.19457 97.4817 5.84707 97.1986 6.67063C96.9155 7.49419 96.8896 8.42588 97.1263 9.27322C97.2275 9.68995 97.3937 10.0759 97.6147 10.4077C97.8357 10.7394 98.1069 11.0101 98.4118 11.2031C98.7168 11.3962 99.0492 11.5076 99.3888 11.5307C99.7283 11.5538 100.068 11.488 100.387 11.3374C101.039 11.016 102.44 10.3437 103.779 9.75082L103.493 15.9599C102.986 16.1136 102.637 16.216 102.59 16.2365C101.915 16.4719 101.338 17.0349 100.981 17.8065C100.623 18.5781 100.514 19.4979 100.675 20.3712C100.788 21.1178 101.097 21.7919 101.551 22.2799C102.005 22.7679 102.577 23.0399 103.169 23.05L103.161 23.2369C103.038 26.5662 103.038 34.0839 103.038 34.4002C103.02 34.7819 103.063 35.1642 103.164 35.5238C103.265 35.8833 103.423 36.2123 103.627 36.4908C103.831 36.7692 104.078 36.991 104.351 37.1427C104.625 37.2943 104.919 37.3726 105.217 37.3726C105.515 37.3726 105.81 37.2943 106.083 37.1427C106.357 36.991 106.603 36.7692 106.807 36.4908C107.011 36.2123 107.169 35.8833 107.27 35.5238C107.372 35.1642 107.415 34.7819 107.397 34.4002C107.397 34.3234 107.397 26.7083 107.517 23.5315L107.595 21.8246C108.306 21.6248 108.951 21.4545 109.36 21.37C111.736 20.5663 114.003 19.3052 116.084 17.6297ZM107.912 14.6986L108.195 8.54462C109.393 8.54823 110.589 8.66161 111.774 8.88393C112.427 8.98288 113.04 9.34563 113.522 9.91987C113.608 10.5757 113.526 11.2494 113.289 11.8406C111.814 12.9983 110.229 13.9056 108.573 14.5399C108.383 14.586 108.158 14.6398 107.912 14.6999V14.6986Z" fill="#67CC00"/>
<path d="M128.953 27.6432C128.695 27.4715 128.412 27.3695 128.122 27.3435C127.833 27.3174 127.542 27.3678 127.268 27.4916C126.994 27.6155 126.742 27.81 126.529 28.0634C126.316 28.3167 126.145 28.6235 126.028 28.9647C126.048 28.9096 126.059 28.884 126.059 28.884C125.875 29.2447 125.618 29.535 125.316 29.7243C125.014 29.9135 124.678 29.9949 124.343 29.9597C121.949 29.9597 120.839 29.6485 120.395 28.8418C120.045 28.2131 120.036 26.3282 120.559 24.1437C121.349 23.9649 122.153 23.9155 122.953 23.9964C124.349 24.3101 126.575 23.8773 129.489 23.1295C129.689 23.077 129.888 23.0284 129.966 23.0092C130.894 22.7278 131.788 22.289 132.625 21.7043C133.238 21.2627 133.696 20.5376 133.907 19.6767C134.118 18.8159 134.065 17.8842 133.76 17.0716C133.623 16.6733 133.424 16.3152 133.176 16.0195C132.927 15.7237 132.634 15.4965 132.314 15.3519C131.994 15.2073 131.655 15.1483 131.317 15.1787C130.979 15.2091 130.649 15.3282 130.348 15.5285C129.955 15.8002 129.543 16.0252 129.118 16.2008C128.991 16.2302 128.802 16.2776 128.541 16.3455C126.987 16.8758 125.388 17.1575 123.781 17.1842C123.458 17.1164 123.131 17.0758 122.804 17.0626C123.283 15.6399 123.772 14.2071 124.201 12.956C124.277 12.9394 124.35 12.9381 124.425 12.9138L130.26 10.9738C132.391 10.392 134.478 9.5658 136.494 8.50509C137.232 8.10259 137.821 7.35166 138.14 6.40749C138.458 5.46333 138.482 4.39806 138.207 3.43179C138.089 2.95656 137.897 2.51708 137.643 2.14009C137.388 1.7631 137.077 1.45647 136.727 1.23893C136.378 1.02138 135.997 0.897468 135.609 0.874687C135.221 0.851906 134.834 0.930734 134.47 1.10642C132.842 1.97206 131.161 2.66334 129.445 3.17314L129.207 3.19873L128.977 3.27556L123.04 5.24881C122.442 5.46489 121.91 5.91292 121.517 6.53172C121.124 7.15052 120.89 7.90989 120.846 8.7061C120.164 10.6857 118.489 15.5759 117.416 18.8898C117.21 19.2861 117.068 19.731 116.998 20.1985C116.829 20.7376 116.691 21.1947 116.599 21.5302C116.026 23.602 114.909 28.8059 116.898 32.4002C118.676 35.6194 121.67 35.8883 124.334 35.8883C125.482 35.9127 126.613 35.5265 127.599 34.773C128.586 34.0195 129.389 32.9283 129.92 31.6217C130.184 30.925 130.23 30.1256 130.051 29.3864C129.871 28.6472 129.478 28.0237 128.953 27.6432Z" fill="#67CC00"/>
<path d="M147.425 3.06563C147.051 2.57862 146.587 2.22148 146.077 2.02773C145.566 1.83398 145.026 1.81 144.506 1.95802C142.694 2.53552 141.394 5.00427 138.946 12.5297C138.117 15.074 137.438 17.1471 136.869 18.8617C136.241 19.1545 135.705 19.7027 135.343 20.4227C134.98 21.1428 134.81 21.9953 134.86 22.8504C134.884 23.296 134.964 23.7336 135.098 24.1463C134.81 24.9863 134.581 25.6508 134.391 26.2015L134.151 26.9006C133.552 28.6472 132.403 31.5244 132.391 31.5539C132.114 32.2408 132.05 33.0375 132.214 33.7823C132.377 34.527 132.755 35.1642 133.271 35.5644C133.524 35.7479 133.804 35.8628 134.093 35.9019C134.382 35.941 134.674 35.9035 134.951 35.7917C135.228 35.68 135.484 35.4963 135.704 35.2521C135.924 35.0079 136.102 34.7085 136.228 34.3723C136.276 34.2442 137.446 31.3119 138.103 29.404L138.34 28.7176C138.548 28.1145 138.799 27.3885 139.12 26.4409L145.342 25.9133C145.336 29.5538 145.303 32.9906 145.303 33.0482C145.284 33.4273 145.325 33.8073 145.424 34.1653C145.523 34.5233 145.678 34.8517 145.879 35.1305C146.08 35.4094 146.323 35.6329 146.593 35.7874C146.863 35.942 147.155 36.0244 147.451 36.0296C147.747 36.0348 148.041 35.9627 148.314 35.8178C148.588 35.6728 148.835 35.4579 149.042 35.1863C149.249 34.9146 149.411 34.5918 149.517 34.2374C149.624 33.8831 149.673 33.5046 149.662 33.1251C149.662 32.7409 149.753 23.5214 149.662 19.1895C149.39 6.3296 148.447 4.22447 147.425 3.06563ZM142.936 14.9204C143.697 12.5809 144.716 9.87142 144.716 9.87142L144.851 10.2031C144.851 10.2031 145.139 13.9894 145.266 18.014L141.831 18.306C142.167 17.2739 142.532 16.1573 142.934 14.9204H142.936Z" fill="#67CC00"/>
<path d="M195.974 5.67993C195.944 5.179 195.837 4.69072 195.658 4.24353C195.48 3.79633 195.234 3.39913 194.935 3.07511C194.636 2.75109 194.289 2.50671 193.916 2.35617C193.543 2.20563 193.15 2.15194 192.76 2.19826C192.516 2.23667 186.766 3.11254 185.466 3.36479L182.786 3.89492C181.175 4.21632 178.741 4.70161 178.451 4.74899C177.637 4.87704 176.176 5.21509 175.393 5.40076C174.857 5.35807 174.324 5.53579 173.872 5.9081C173.42 6.28041 173.072 6.82795 172.879 7.47131V7.49054C172.771 7.74666 172.686 8.01717 172.625 8.29721C172.224 9.48138 171.883 10.6974 171.604 11.9377C171.537 12.2142 171.287 13.1477 171.063 13.9864C170.637 15.5678 170.216 17.1569 169.84 18.6359C169.701 18.98 169.608 19.3512 169.564 19.7345C169.165 21.3569 168.842 22.7834 168.68 23.8026C168.622 24.1945 168.583 24.5904 168.562 24.9884C168.414 24.86 168.256 24.7526 168.089 24.6682C166.773 23.9998 166.231 24.1381 164.817 26.6889C163.701 27.3471 162.456 27.5574 161.246 27.292C160.504 27.0239 159.788 26.6516 159.11 26.1818C158.031 25.5095 157.025 24.6598 156.117 23.6541C155.506 22.3203 155.299 20.7436 155.537 19.2262C155.718 18.38 155.986 17.5687 156.335 16.8137C157.667 14.6605 159.331 12.8825 161.223 11.5907C162.708 10.5099 163.245 10.9504 163.383 11.259C163.521 11.5676 163.246 12.6765 163.246 12.6765C163.11 15.3284 162.946 15.7113 163.744 17.2863C163.922 17.6559 164.157 17.9745 164.435 18.2221C164.713 18.4697 165.028 18.6409 165.36 18.725C165.692 18.8092 166.034 18.8044 166.364 18.7111C166.695 18.6178 167.007 18.4378 167.28 18.1826C168.24 17.0436 168.952 15.6049 169.349 14.0069C169.705 12.8349 169.857 11.5775 169.795 10.3223C169.734 9.06711 169.46 7.84426 168.992 6.73889C168.683 5.98089 168.232 5.33348 167.68 4.85509C167.128 4.37669 166.491 4.08236 165.828 3.99863C165.67 3.98454 165.486 3.95893 165.291 3.93204C163.058 3.4742 160.77 4.03219 158.823 5.50959C156.415 7.18129 154.289 9.45024 152.569 12.1848C151.324 13.8032 150.484 15.8624 150.157 18.0981C149.845 20.6373 149.671 25.3405 152.014 28.333C153.523 30.089 155.192 31.605 156.984 32.848C157.445 33.1976 157.882 33.5305 158.281 33.8493C160.332 35.4802 162.78 36.08 165.155 35.5332C167.232 35.1798 168.546 32.373 169.26 30.1795C169.433 30.6395 169.638 31.0784 169.872 31.4907C171.706 35.2195 175.266 35.2297 177.648 35.2297C179.905 35.1261 182.076 34.084 183.832 32.2603C184.364 31.6673 184.702 30.838 184.778 29.9387C184.854 29.0394 184.662 28.1365 184.241 27.411C184.044 27.0587 183.791 26.7627 183.5 26.5417C183.209 26.3207 182.886 26.1795 182.55 26.1269C182.214 26.0743 181.874 26.1116 181.55 26.2363C181.226 26.361 180.926 26.5705 180.668 26.8515L180.682 26.8348C179.809 27.7102 178.751 28.229 177.646 28.324C175.48 28.324 174.282 28.091 174.081 27.6313L173.951 27.3304L173.837 27.1614C173.584 26.5878 173.517 25.9088 173.653 25.2727C173.721 24.8488 173.841 24.2739 173.988 23.6221C174.358 23.5991 174.707 23.5722 174.95 23.5453C175.681 23.4608 178.92 23.229 179.339 23.2264L183.68 23.1445C184.368 23.0849 185.012 22.6885 185.48 22.037C185.947 21.3855 186.202 20.5286 186.191 19.6431C186.181 18.7575 185.906 17.9109 185.424 17.2777C184.941 16.6445 184.288 16.2731 183.599 16.2401L179.339 16.322C178.866 16.322 177.077 16.4501 175.789 16.55C175.806 16.4911 175.825 16.4219 175.841 16.3617C176.34 14.5063 176.48 13.9762 176.546 13.592C176.571 13.4883 176.613 13.336 176.674 13.1196C177.48 12.93 178.577 12.6842 179.134 12.5946C179.453 12.5433 181.129 12.2104 183.637 11.7097L186.292 11.1834C187.266 10.9952 191.379 10.3575 193.414 10.0476C194.201 9.89475 194.911 9.35165 195.389 8.53496C195.868 7.71827 196.078 6.69319 195.974 5.67993Z" fill="#67CC00"/>
</svg>
