<?xml version="1.0" encoding="UTF-8"?>
<svg id="_레이어_2" data-name="레이어 2" xmlns="http://www.w3.org/2000/svg" xmlns:xlink="http://www.w3.org/1999/xlink" viewBox="0 0 1920 1080">
  <defs>
    <style>
      .cls-1 {
        fill: url(#_무제_그라디언트_4631-7);
      }

      .cls-1, .cls-2, .cls-3, .cls-4, .cls-5, .cls-6, .cls-7, .cls-8, .cls-9, .cls-10, .cls-11, .cls-12, .cls-13, .cls-14 {
        stroke-width: 0px;
      }

      .cls-2 {
        fill: url(#_무제_그라디언트_4631-5);
      }

      .cls-3 {
        fill: none;
      }

      .cls-4 {
        fill: url(#_무제_그라디언트_4631);
      }

      .cls-5 {
        fill: url(#_무제_그라디언트_4631-12);
      }

      .cls-6 {
        fill: #fff;
      }

      .cls-7 {
        fill: url(#_무제_그라디언트_4631-2);
      }

      .cls-8 {
        fill: url(#_무제_그라디언트_4631-4);
      }

      .cls-9 {
        fill: url(#_무제_그라디언트_4631-3);
      }

      .cls-10 {
        fill: url(#_무제_그라디언트_4631-10);
      }

      .cls-11 {
        fill: url(#_무제_그라디언트_4631-9);
      }

      .cls-12 {
        fill: url(#_무제_그라디언트_4631-6);
      }

      .cls-13 {
        fill: url(#_무제_그라디언트_4631-8);
      }

      .cls-14 {
        fill: url(#_무제_그라디언트_4631-11);
      }
    </style>
    <linearGradient id="_무제_그라디언트_4631" data-name="무제 그라디언트 4631" x1="771.79" y1="569.81" x2="788.01" y2="569.81" gradientUnits="userSpaceOnUse">
      <stop offset="0" stop-color="#3c79cc"/>
      <stop offset="1" stop-color="#3d50ff"/>
    </linearGradient>
    <linearGradient id="_무제_그라디언트_4631-2" data-name="무제 그라디언트 4631" x1="788.63" y1="576" x2="801.68" y2="576" xlink:href="#_무제_그라디언트_4631"/>
    <linearGradient id="_무제_그라디언트_4631-3" data-name="무제 그라디언트 4631" x1="803.32" y1="573.28" x2="813.24" y2="573.28" xlink:href="#_무제_그라디언트_4631"/>
    <linearGradient id="_무제_그라디언트_4631-4" data-name="무제 그라디언트 4631" x1="813.21" y1="573.13" x2="828.83" y2="573.13" xlink:href="#_무제_그라디언트_4631"/>
    <linearGradient id="_무제_그라디언트_4631-5" data-name="무제 그라디언트 4631" x1="833.57" y1="571.45" x2="842.87" y2="571.45" xlink:href="#_무제_그라디언트_4631"/>
    <linearGradient id="_무제_그라디언트_4631-6" data-name="무제 그라디언트 4631" x1="842.71" y1="569.46" x2="858.07" y2="569.46" xlink:href="#_무제_그라디언트_4631"/>
    <linearGradient id="_무제_그라디언트_4631-7" data-name="무제 그라디언트 4631" x1="857.92" y1="573.28" x2="867.84" y2="573.28" xlink:href="#_무제_그라디언트_4631"/>
    <linearGradient id="_무제_그라디언트_4631-8" data-name="무제 그라디언트 4631" x1="874.58" y1="569.61" x2="887.55" y2="569.61" xlink:href="#_무제_그라디언트_4631"/>
    <linearGradient id="_무제_그라디언트_4631-9" data-name="무제 그라디언트 4631" x1="887.34" y1="573.28" x2="898.53" y2="573.28" xlink:href="#_무제_그라디언트_4631"/>
    <linearGradient id="_무제_그라디언트_4631-10" data-name="무제 그라디언트 4631" x1="900.1" y1="573.28" x2="911.29" y2="573.28" xlink:href="#_무제_그라디언트_4631"/>
    <linearGradient id="_무제_그라디언트_4631-11" data-name="무제 그라디언트 4631" x1="911.71" y1="573.13" x2="922.07" y2="573.13" xlink:href="#_무제_그라디언트_4631"/>
    <linearGradient id="_무제_그라디언트_4631-12" data-name="무제 그라디언트 4631" x1="923.84" y1="569.74" x2="926.91" y2="569.74" xlink:href="#_무제_그라디언트_4631"/>
  </defs>
  <g id="_오브젝트" data-name="오브젝트">
    <g>
      <rect class="cls-3" width="1920" height="1080"/>
      <g>
        <rect class="cls-6" x="743.43" y="548.46" width="212.26" height="45.13" rx="14.62" ry="14.62"/>
        <polygon class="cls-6" points="849.56 609.37 861.05 588.38 838.07 588.38 849.56 609.37"/>
        <g>
          <path class="cls-4" d="m771.79,569.81c0-6.09,3.23-10.8,8.07-10.8s8.15,4.76,8.15,10.8-3.2,10.8-8.07,10.8-8.15-4.74-8.15-10.8Zm9.03,10.2c2.79-.03,4.29-2.97,4.29-7.34,0-6.51-2.24-13.07-6.14-13.07-2.76,0-4.29,3.18-4.29,7.29,0,6.56,2.21,13.12,6.14,13.12Z"/>
          <path class="cls-7" d="m789.03,586.06c-.23,0-.34-.05-.34-.23,0-.16.1-.21.34-.21,1.59,0,2.42-.42,2.42-2.65v-13.75c0-1.59-.36-1.72-.83-1.72-.65,0-1.41.13-1.67.18-.23,0-.31-.05-.31-.21,0-.13.08-.18.37-.23,1.54-.26,3.96-1.3,4.74-1.3.31,0,.44.21.44.47,0,.42-.08.94-.13,1.54-.05.65.18.73.55.16,1.07-1.54,2.08-2.16,3.15-2.16,2.5,0,3.93,2.79,3.93,6.87,0,4.42-1.82,7.86-4.71,7.86-1.28,0-2.13-.75-2.63-.75-.31,0-.36.21-.36.6v2.45c0,2.24,1.25,2.65,3.07,2.65.31,0,.42.05.42.21s-.1.23-.44.23c-1.07,0-2.63-.13-3.75-.13h-1.28c-.86,0-1.95.13-2.97.13Zm7.37-6.09c1.72,0,2.6-2.94,2.6-6.72,0-3.2-.7-5.73-2.53-5.73-1.17,0-2.5.91-2.5,4.06v3.77c0,2.79.99,4.61,2.42,4.61Z"/>
          <path class="cls-9" d="m803.32,573.69c0-4.27,2.06-7.76,5.31-7.76,2.42,0,4.06,1.93,4.06,4.06,0,1.46-.31,1.93-2.19,1.93h-3.62c-.65,0-1.09.44-1.12,1.04v.55c0,3.02,1.25,5.15,3.41,5.15,1.17,0,2.73-.7,3.67-3.93.1-.26.16-.31.26-.31.16,0,.16.1.1.37-.94,4.06-2.66,5.83-5.1,5.83-2.94,0-4.79-2.47-4.79-6.92Zm3.57-2.11h1.77c1.2,0,1.51-.57,1.51-1.67,0-1.82-.55-3.44-1.88-3.44-1.25,0-2.16,1.59-2.42,4.01-.03.62.39,1.09,1.02,1.09Z"/>
          <path class="cls-8" d="m813.6,580.33c-.29,0-.39-.05-.39-.23,0-.16.1-.21.37-.21,1.72,0,2.58-.42,2.58-2.66l.03-8.02c0-1.59-.39-1.72-.83-1.72-.68,0-1.43.13-1.69.18-.23,0-.31-.05-.31-.21,0-.13.1-.18.36-.23,1.54-.26,3.96-1.3,4.74-1.3h.03c.34,0,.42.26.42.47,0,.34-.08.86-.13,1.38-.03.68.23.78.65.26,1.17-1.33,2.39-2.11,3.64-2.11,1.85,0,2.84,1.33,2.84,3.78v7.52c0,2.24,1.07,2.66,2.58,2.66.29,0,.36.05.36.21s-.08.23-.36.23c-.91,0-2.24-.13-3.15-.13h-1.38c-.96,0-1.72.05-2.5.08h-.62c-.91-.03-1.69-.08-2.68-.08h-1.38c-.94,0-2.08.13-3.15.13Zm7.5-.42c1.85-.05,2.29-1.02,2.29-2.99v-7.21c0-1.46-.55-2.13-1.67-2.13-1.33,0-3.05.81-3.05,2.58v6.77c0,1.95.44,2.94,2.42,2.99Z"/>
          <path class="cls-2" d="m842.71,574.16c.1,0,.16.08.16.29-.36,4.11-1.48,6.17-3.77,6.17-1.95,0-3.12-1.22-3.12-4.87v-8.15c0-.42-.29-.7-.7-.7h-1.3c-.29,0-.39-.05-.39-.21s.1-.23.39-.23c2.08,0,3.72-1.12,3.93-3.75.05-.31.1-.42.29-.42.23,0,.26.08.26.42v3.02c0,.55.39.81.94.81.78,0,1.9-.34,2.34-.34.29,0,.44.13.44.36,0,.21-.16.34-.47.34h-2.5c-.42,0-.7.29-.7.7v7.47c0,2.42.47,3.88,1.74,3.88.96,0,1.93-1.38,2.27-4.5.03-.21.08-.29.21-.29Z"/>
          <path class="cls-12" d="m843.08,580.33c-.26,0-.36-.05-.36-.23,0-.16.1-.21.34-.21,1.64,0,2.5-.42,2.5-2.66v-15.36c0-1.59-.39-1.72-.83-1.72-.68,0-1.41.13-1.69.16-.21.03-.31-.03-.31-.18,0-.13.1-.21.36-.26,1.54-.26,3.93-1.28,4.74-1.28.21,0,.44.08.44.47,0,1.98-.18,4.5-.18,6.85v1.93c0,.68.29.78.73.26,1.22-1.38,2.34-2.16,3.62-2.16,2.03,0,3.05,1.33,3.05,3.78v7.52c0,2.24.91,2.66,2.29,2.66.23,0,.31.05.31.21s-.08.23-.34.23c-.81,0-1.98-.13-2.79-.13h-1.46c-1.04,0-1.85.08-2.76.08h-.29c-1.02,0-1.85-.08-2.92-.08h-1.43c-.88,0-1.98.13-3.02.13Zm4.74-21.74h-.03.03Zm2.76,21.32c1.93-.03,2.37-.96,2.37-2.99v-7.26c0-1.43-.57-2.08-1.85-2.08s-3.02.86-3.02,2.58v6.77c0,1.98.44,2.97,2.5,2.99Z"/>
          <path class="cls-1" d="m857.92,573.69c0-4.27,2.06-7.76,5.31-7.76,2.42,0,4.06,1.93,4.06,4.06,0,1.46-.31,1.93-2.19,1.93h-3.62c-.65,0-1.09.44-1.12,1.04v.55c0,3.02,1.25,5.15,3.41,5.15,1.17,0,2.73-.7,3.67-3.93.1-.26.16-.31.26-.31.16,0,.16.1.1.37-.94,4.06-2.66,5.83-5.1,5.83-2.94,0-4.79-2.47-4.79-6.92Zm3.57-2.11h1.77c1.2,0,1.51-.57,1.51-1.67,0-1.82-.55-3.44-1.88-3.44-1.25,0-2.16,1.59-2.42,4.01-.03.62.39,1.09,1.02,1.09Z"/>
          <path class="cls-13" d="m874.58,573.9c0-4.74,2.06-7.99,4.66-7.99,1.22,0,1.88.65,2.55.65.42,0,.47-.21.47-1.15v-3.54c0-1.59-.44-1.72-.94-1.72-.75,0-1.59.13-1.9.16-.26.03-.36-.03-.36-.18,0-.13.13-.21.42-.26,1.61-.23,4.14-1.17,5.15-1.28.26.05.36.21.36.47,0,2.03-.21,4.45-.21,6.66v11.51c0,2.24.83,2.66,2.42,2.66.26,0,.34.05.34.23,0,.16-.08.21-.34.21-.94,0-1.77-.08-2.76-.08-1.07,0-1.93.36-2.32.36-.75.03-.13-1.43.1-2.73.05-.47-.31-.44-.55-.08-.96,1.72-1.98,2.81-3.2,2.81-2.55,0-3.9-2.79-3.9-6.72Zm5.08,4.89c1.09,0,2.6-1.25,2.6-4.11v-2.76c0-3.15-.86-5.28-2.27-5.28-1.82,0-2.73,3.18-2.73,6.59,0,3.15.6,5.57,2.39,5.57Zm4.97-20.2h.18-.31.13Z"/>
          <path class="cls-11" d="m887.34,573.35c0-4.19,2.06-7.42,5.6-7.42s5.6,3.36,5.6,7.26c0,4.19-2.08,7.42-5.6,7.42s-5.6-3.36-5.6-7.26Zm6.46,6.66c1.51,0,2.08-2.26,2.08-4.58,0-3.8-1.28-8.88-3.83-8.88-1.48,0-2.08,2.29-2.08,4.61,0,3.8,1.2,8.85,3.83,8.85Z"/>
          <path class="cls-10" d="m900.1,573.35c0-4.19,2.06-7.42,5.6-7.42s5.6,3.36,5.6,7.26c0,4.19-2.08,7.42-5.6,7.42s-5.6-3.36-5.6-7.26Zm6.46,6.66c1.51,0,2.08-2.26,2.08-4.58,0-3.8-1.28-8.88-3.83-8.88-1.48,0-2.08,2.29-2.08,4.61,0,3.8,1.2,8.85,3.83,8.85Z"/>
          <path class="cls-14" d="m912.13,580.33c-.26,0-.36-.05-.36-.23,0-.16.1-.21.34-.21,1.61,0,2.42-.42,2.45-2.66v-8.02c0-1.59-.39-1.72-.83-1.72-.68,0-1.43.13-1.69.18-.23,0-.31-.05-.31-.21,0-.13.1-.18.36-.23,1.54-.26,3.96-1.3,4.74-1.3.34,0,.42.26.42.47,0,.42-.08,1.02-.13,1.8-.05.65.16.7.44.1.81-1.48,1.8-2.37,2.97-2.37.96,0,1.56.52,1.56,1.46,0,1.15-.68,1.69-1.35,1.69-1.22,0-.91-1.2-1.95-1.2-.81,0-1.72,1.38-1.72,2.94v6.4c0,2.24,1.48,2.66,3.64,2.66.39,0,.52.05.52.21s-.13.23-.55.23c-1.28,0-3.12-.13-4.42-.13h-1.17c-.86,0-1.93.13-2.94.13Z"/>
          <path class="cls-5" d="m925.38,577.55c.83,0,1.54.7,1.54,1.54s-.7,1.54-1.54,1.54-1.54-.68-1.54-1.54.68-1.54,1.54-1.54Zm0-18.69c.86,0,1.38.57,1.38,1.72,0,2.79-1.09,6.22-1.15,14.63,0,.26-.05.39-.21.39s-.23-.13-.23-.39c0-8.41-1.17-11.84-1.17-14.63,0-1.15.5-1.72,1.38-1.72Z"/>
        </g>
      </g>
    </g>
  </g>
</svg>