<svg width="74" height="75" viewBox="0 0 74 75" fill="none" xmlns="http://www.w3.org/2000/svg">
<path d="M48.7438 69.2539H25.1704V53.2407C21.8568 51.1865 19.1371 48.3025 17.2806 44.8743C15.4241 41.446 14.4951 37.5923 14.5856 33.6947C14.6761 29.797 15.783 25.9906 17.7967 22.6522C19.8104 19.3138 22.661 16.5592 26.0664 14.6611C29.4718 12.7629 33.3139 11.7871 37.2123 11.8301C41.1108 11.8731 44.9304 12.9335 48.2931 14.9064C51.6557 16.8792 54.4449 19.6961 56.3844 23.0781C58.3239 26.4601 59.3465 30.29 59.351 34.1887C59.342 38.003 58.3639 41.7524 56.5085 45.085C54.6531 48.4175 51.9812 51.2239 48.7438 53.2407V69.2539ZM26.0304 68.4348H47.8837V52.7329L48.0967 52.61C51.314 50.6643 53.9655 47.9097 55.7872 44.6207C57.609 41.3316 58.5375 37.6227 58.4802 33.8632C58.423 30.1038 57.382 26.4249 55.461 23.1928C53.5399 19.9607 50.8058 17.2882 47.5308 15.4413C44.2558 13.5944 40.5541 12.6375 36.7943 12.6659C33.0345 12.6943 29.3478 13.7071 26.1011 15.6033C22.8544 17.4995 20.1609 20.2131 18.289 23.4738C16.417 26.7346 15.4318 30.4288 15.4314 34.1887C15.4166 37.8972 16.3672 41.5457 18.1896 44.7755C20.0121 48.0054 22.6436 50.7053 25.8257 52.61L26.0304 52.7329V68.4348Z" fill="black"/>
<path d="M48.3178 57.3689H25.6045V58.2289H48.3178V57.3689Z" fill="black"/>
<path d="M48.3178 63.1844H25.6045V64.0445H48.3178V63.1844Z" fill="black"/>
<path d="M41.2334 74.0374H32.6821V68.3939H41.2334V74.0374ZM33.5422 73.2184H40.3734V69.254H33.5831L33.5422 73.2184Z" fill="black"/>
<path d="M37.3911 57.8031H36.5311V47.1303L32.8042 43.4035L33.4103 42.7974L37.3911 46.7699V57.8031Z" fill="black"/>
<path d="M40.5064 42.7981L36.6548 46.6497L37.2629 47.2578L41.1145 43.4062L40.5064 42.7981Z" fill="black"/>
<path d="M37.3913 0H36.5312V7.69943H37.3913V0Z" fill="black"/>
<path d="M14.9347 7.86771L14.2759 8.42053L19.225 14.3186L19.8838 13.7658L14.9347 7.86771Z" fill="black"/>
<path d="M2.78118 28.3143L2.63184 29.1613L10.2143 30.4982L10.3636 29.6513L2.78118 28.3143Z" fill="black"/>
<path d="M13.2887 47.9563L6.62012 51.8048L7.05001 52.5497L13.7186 48.7011L13.2887 47.9563Z" fill="black"/>
<path d="M60.6248 47.9592L60.1948 48.704L66.8627 52.5537L67.2927 51.8089L60.6248 47.9592Z" fill="black"/>
<path d="M71.1423 28.3205L63.5601 29.6588L63.7096 30.5058L71.2918 29.1674L71.1423 28.3205Z" fill="black"/>
<path d="M58.9946 7.86228L54.0444 13.7595L54.7032 14.3125L59.6533 8.41522L58.9946 7.86228Z" fill="black"/>
</svg>
