<svg width="74" height="74" viewBox="0 0 74 74" fill="none" xmlns="http://www.w3.org/2000/svg">
<path d="M45.1149 69.172L44.9102 68.3529C50.0752 66.9864 54.8248 64.3702 58.7401 60.7349C62.6554 57.0995 65.6162 52.5568 67.3614 47.5071L68.1805 47.7692C66.3912 52.9577 63.3504 57.6252 59.3273 61.3583C55.3041 65.0915 50.4226 67.7752 45.1149 69.172V69.172Z" fill="black"/>
<path d="M68.5245 31.6005C67.4081 25.5616 64.594 19.9658 60.4117 15.4688C56.2295 10.9718 50.8523 7.75964 44.9102 6.20874L45.1149 5.38965C51.2128 6.9807 56.7305 10.2779 61.0205 14.8943C65.3106 19.5108 68.195 25.255 69.3354 31.453L68.5245 31.6005Z" fill="black"/>
<path d="M5.39721 31.6004L4.57812 31.453C5.72891 25.2665 8.61808 19.5358 12.9075 14.9316C17.1968 10.3275 22.7089 7.04037 28.7986 5.45508L29.0033 6.27417C23.0719 7.82245 17.703 11.0256 13.5232 15.51C9.34348 19.9943 6.52518 25.5748 5.39721 31.6004V31.6004Z" fill="black"/>
<path d="M28.7986 69.1802C23.4987 67.7762 18.6263 65.0882 14.612 61.3539C10.5977 57.6196 7.5651 52.9539 5.78223 47.7692L6.55217 47.5071C8.29287 52.5623 11.2505 57.1117 15.1644 60.7542C19.0782 64.3967 23.8281 67.0203 28.9952 68.3938L28.7986 69.1802Z" fill="black"/>
<path d="M36.9571 57.9505C32.8763 57.9505 28.8871 56.7404 25.4941 54.4732C22.101 52.2061 19.4565 48.9837 17.8948 45.2135C16.3332 41.4434 15.9246 37.2948 16.7207 33.2924C17.5168 29.29 19.4819 25.6136 22.3674 22.728C25.253 19.8425 28.9294 17.8774 32.9318 17.0813C36.9342 16.2852 41.0828 16.6938 44.8529 18.2554C48.6231 19.8171 51.8455 22.4616 54.1127 25.8547C56.3798 29.2477 57.5899 33.2369 57.5899 37.3177C57.5834 42.7878 55.4075 48.0321 51.5395 51.9001C47.6715 55.7681 42.4272 57.944 36.9571 57.9505V57.9505ZM36.9571 17.5039C33.0383 17.5039 29.2075 18.666 25.9491 20.8431C22.6908 23.0203 20.1512 26.1148 18.6515 29.7353C17.1519 33.3558 16.7595 37.3396 17.524 41.1831C18.2886 45.0266 20.1756 48.5571 22.9466 51.3281C25.7176 54.0991 29.2481 55.9862 33.0916 56.7507C36.9351 57.5152 40.919 57.1228 44.5395 55.6232C48.16 54.1235 51.2544 51.584 53.4316 48.3256C55.6088 45.0672 56.7708 41.2365 56.7708 37.3177C56.7665 32.0641 54.6776 27.0269 50.9627 23.312C47.2479 19.5972 42.2107 17.5083 36.9571 17.5039V17.5039Z" fill="black"/>
<path d="M4.99593 43.551C4.0421 43.5493 3.11015 43.265 2.31786 42.7339C1.52556 42.2028 0.908475 41.4488 0.544581 40.5671C0.180687 39.6854 0.0863149 38.7156 0.273391 37.7803C0.460466 36.845 0.920594 35.9861 1.59563 35.3123C2.27066 34.6384 3.13031 34.1797 4.06593 33.9942C5.00155 33.8087 5.97117 33.9047 6.85224 34.2701C7.73331 34.6355 8.4863 35.2539 9.01606 36.0471C9.54581 36.8403 9.82855 37.7727 9.82855 38.7265C9.82855 39.3608 9.7035 39.9888 9.46053 40.5746C9.21757 41.1605 8.86147 41.6927 8.41261 42.1408C7.96376 42.5889 7.43095 42.9441 6.84468 43.1861C6.2584 43.428 5.63017 43.552 4.99593 43.551V43.551ZM4.99593 34.7212C4.2041 34.7228 3.43051 34.9591 2.77292 35.4002C2.11532 35.8413 1.60322 36.4674 1.30132 37.1994C0.999422 37.9314 0.92127 38.7365 1.07674 39.5129C1.23221 40.2894 1.61433 41.0023 2.17481 41.5616C2.73529 42.121 3.44899 42.5016 4.22573 42.6555C5.00246 42.8094 5.80738 42.7296 6.53879 42.4262C7.27019 42.1228 7.89526 41.6094 8.33501 40.9509C8.77476 40.2924 9.00946 39.5184 9.00946 38.7265C9.00729 37.6635 8.58348 36.6447 7.83104 35.8938C7.07859 35.1429 6.05897 34.7212 4.99593 34.7212V34.7212Z" fill="black"/>
<path d="M68.9338 43.551C67.9796 43.551 67.0469 43.268 66.2535 42.7379C65.4601 42.2078 64.8418 41.4543 64.4766 40.5728C64.1115 39.6912 64.0159 38.7212 64.2021 37.7853C64.3882 36.8495 64.8477 35.9899 65.5224 35.3151C66.1971 34.6404 67.0568 34.181 67.9926 33.9948C68.9285 33.8087 69.8985 33.9042 70.78 34.2693C71.6616 34.6345 72.4151 35.2528 72.9452 36.0462C73.4753 36.8396 73.7582 37.7724 73.7582 38.7265C73.7582 39.3601 73.6335 39.9874 73.391 40.5728C73.1486 41.1581 72.7932 41.6899 72.3452 42.1379C71.8972 42.5859 71.3654 42.9413 70.78 43.1837C70.1947 43.4262 69.5674 43.551 68.9338 43.551ZM68.9338 34.7212C68.1416 34.7212 67.3672 34.9561 66.7086 35.3962C66.0499 35.8363 65.5365 36.4619 65.2334 37.1938C64.9302 37.9256 64.8509 38.731 65.0054 39.5079C65.16 40.2849 65.5414 40.9986 66.1016 41.5587C66.6618 42.1189 67.3754 42.5004 68.1524 42.6549C68.9294 42.8095 69.7347 42.7301 70.4666 42.427C71.1985 42.1238 71.824 41.6105 72.2641 40.9518C72.7042 40.2931 72.9392 39.5187 72.9392 38.7265C72.937 37.6649 72.5143 36.6474 71.7636 35.8967C71.0129 35.146 69.9954 34.7234 68.9338 34.7212V34.7212Z" fill="black"/>
<path d="M36.9566 10.6481C36.001 10.6497 35.0665 10.3675 34.2715 9.83731C33.4765 9.30709 32.8569 8.55273 32.4912 7.66989C32.1256 6.78705 32.0303 5.8155 32.2175 4.87845C32.4048 3.9414 32.866 3.08105 33.5429 2.40651C34.2197 1.73197 35.0816 1.27362 36.0193 1.08958C36.957 0.905552 37.9282 1.00413 38.8098 1.37281C39.6914 1.74149 40.4437 2.36367 40.9712 3.16044C41.4987 3.95722 41.7777 4.89271 41.7728 5.84827C41.7642 7.12144 41.2535 8.33977 40.3517 9.23853C39.4498 10.1373 38.2298 10.6438 36.9566 10.6481V10.6481ZM36.9566 1.81835C36.1651 1.81675 35.3909 2.04967 34.7317 2.48772C34.0725 2.92577 33.5578 3.54931 33.2527 4.27961C32.9476 5.00992 32.8657 5.81425 33.0173 6.59107C33.169 7.36789 33.5474 8.08237 34.1047 8.64431C34.6621 9.20625 35.3735 9.59046 36.149 9.74844C36.9246 9.90641 37.7296 9.83107 38.4623 9.53193C39.1951 9.23278 39.8228 8.72324 40.2662 8.06763C40.7096 7.41202 40.9489 6.63973 40.9537 5.84827C40.9516 4.78806 40.53 3.77178 39.7811 3.02133C39.0322 2.27089 38.0168 1.84725 36.9566 1.84292V1.81835Z" fill="black"/>
<path d="M36.9566 72.8989C36.0021 72.9005 35.0686 72.6189 34.2741 72.0898C33.4797 71.5607 32.86 70.8077 32.4936 69.9263C32.1272 69.0449 32.0305 68.0746 32.2157 67.1383C32.401 66.2019 32.8598 65.3415 33.5342 64.6659C34.2086 63.9904 35.0682 63.5301 36.0042 63.3433C36.9403 63.1565 37.9108 63.2515 38.7928 63.6165C39.6748 63.9814 40.4288 64.5997 40.9593 65.3933C41.4897 66.1868 41.7729 67.1199 41.7729 68.0744C41.7686 69.3512 41.26 70.5746 40.358 71.4782C39.4559 72.3818 38.2334 72.8924 36.9566 72.8989ZM36.9566 64.0691C36.1641 64.0675 35.3889 64.301 34.7292 64.7401C34.0694 65.1792 33.5548 65.8042 33.2504 66.536C32.9459 67.2677 32.8655 68.0733 33.0191 68.8508C33.1727 69.6283 33.5535 70.3427 34.1134 70.9037C34.6732 71.4647 35.3869 71.847 36.164 72.0022C36.9412 72.1574 37.747 72.0786 38.4793 71.7757C39.2117 71.4728 39.8377 70.9594 40.2782 70.3005C40.7187 69.6417 40.9538 68.867 40.9538 68.0744C40.9516 67.0142 40.5301 65.9979 39.7812 65.2475C39.0323 64.497 38.0168 64.0734 36.9566 64.0691Z" fill="black"/>
<path d="M35.3184 26.0389L31.6816 17.8562L32.4352 17.5286L35.7197 24.9249L40.5442 22.5086L42.8049 17.889L43.542 18.2494L41.1585 23.1229L35.3184 26.0389Z" fill="black"/>
<path d="M50.5071 22.4596L48.0283 27.4291L48.7613 27.7947L51.2401 22.8252L50.5071 22.4596Z" fill="black"/>
<path d="M55.0665 45.5004L54.1409 37.1867L45.4258 36.4822L46.6216 32.395L55.3122 28.7992L55.6316 29.5528L47.2933 33.0011L46.4906 35.7451L54.8781 36.4249L55.8774 45.4103L55.0665 45.5004Z" fill="black"/>
<path d="M48.056 54.2073L40.8398 42.6172L45.8936 38.2433L50.7918 40.5367L54.9036 40.2091L54.9691 41.0282L50.6443 41.3722L46.0247 39.2098L41.9047 42.7728L48.7522 53.7732L48.056 54.2073Z" fill="black"/>
<path d="M31.125 56.73L30.3796 56.4024L34.9992 45.6314L29.5441 42.6335L26.194 44.8205L28.6185 48.7193L27.7257 55.1492L26.9148 55.0427L27.7667 48.8995L25.0801 44.5666L29.5032 41.6752L36.0477 45.271L31.125 56.73Z" fill="black"/>
<path d="M27.8164 43.4773L20.9934 39.2426L16.7178 34.1724L17.3403 33.64L20.2317 37.0638L23.5244 35.7041H27.1366L33.2142 29.8804L30.4047 25.6129L27.4151 26.4976L25.179 24.3843L26.3421 19.7646L27.1366 19.9694L26.0963 24.1222L27.6362 25.5802L30.757 24.6546L34.2708 29.9951L27.4642 36.5232H23.6063L20.7805 37.7191L21.575 38.661L28.2423 42.781L27.8164 43.4773Z" fill="black"/>
<path d="M43.4989 24.0123L42.8447 24.5052L44.1855 26.2845L44.8397 25.7916L43.4989 24.0123Z" fill="black"/>
</svg>
