<svg width="74" height="74" viewBox="0 0 74 74" fill="none" xmlns="http://www.w3.org/2000/svg">
<path d="M13.0234 68.6969H0.0654297V42.8875H13.0234V68.6969ZM0.876327 67.8778H12.2125V43.6983H0.876327V67.8778Z" fill="black"/>
<path d="M56.9918 49.5221H56.1727C56.1727 48.4134 55.7329 47.3501 54.9497 46.5654C54.1665 45.7806 53.104 45.3387 51.9954 45.3365H35.5645V44.5175H52.0036C52.66 44.5175 53.31 44.647 53.9163 44.8987C54.5225 45.1504 55.0732 45.5193 55.5366 45.9843C56 46.4492 56.3671 47.001 56.6168 47.6081C56.8665 48.2152 56.994 48.8656 56.9918 49.5221V49.5221Z" fill="black"/>
<path d="M12.2129 66.3462V48.6784L14.6046 47.3106C18.5077 45.0401 22.977 43.9292 27.4889 44.1079L35.5569 44.5338V45.3529L27.5626 44.9352L27.4971 44.5257V44.927C23.1368 44.7616 18.8192 45.8381 15.0469 48.0314L13.0156 49.1453V65.3059L18.1513 64.0118C21.3973 63.1716 24.7635 62.8946 28.1032 63.1927L47.3436 65.0438C48.5445 65.1582 49.7561 65.0341 50.9088 64.6784C52.0615 64.3228 53.1325 63.7427 54.0601 62.9715L73.0384 47.2696C72.9901 46.3663 72.597 45.5161 71.9401 44.8942C71.2832 44.2724 70.4127 43.9264 69.5081 43.9277C68.9617 43.9287 68.4231 44.0578 67.9355 44.3045L56.9925 49.7678V51.8074H37.9487V50.9883H56.1816V49.2682L67.5751 43.5755C68.1761 43.2775 68.8373 43.1206 69.5081 43.1168C70.6602 43.1168 71.7653 43.5739 72.5807 44.3878C73.3961 45.2017 73.8553 46.3059 73.8575 47.458V47.6464L54.6089 63.594C53.5914 64.4407 52.4156 65.0766 51.15 65.4647C49.8845 65.8528 48.5544 65.9854 47.2371 65.8547L28.0295 64.0445C24.7834 63.7387 21.5089 63.9908 18.3479 64.7899L12.2129 66.3462Z" fill="black"/>
<path d="M38.1943 40.9053C34.6659 40.9053 31.2167 39.8591 28.283 37.8988C25.3493 35.9385 23.0627 33.1524 21.7125 29.8926C20.3622 26.6328 20.0089 23.0458 20.6973 19.5852C21.3856 16.1247 23.0847 12.9459 25.5796 10.451C28.0746 7.95605 31.2533 6.25697 34.7139 5.56862C38.1745 4.88027 41.7614 5.23356 45.0212 6.58381C48.281 7.93406 51.0672 10.2206 53.0275 13.1544C54.9877 16.0881 56.034 19.5372 56.034 23.0656C56.0297 27.7957 54.1487 32.3307 50.8041 35.6754C47.4594 39.0201 42.9243 40.901 38.1943 40.9053ZM38.1943 6.03674C34.8263 6.03674 31.5339 7.03546 28.7335 8.90662C25.9331 10.7778 23.7505 13.4373 22.4616 16.5489C21.1728 19.6605 20.8355 23.0845 21.4926 26.3878C22.1497 29.691 23.7715 32.7253 26.153 35.1068C28.5346 37.4883 31.5688 39.1102 34.8721 39.7672C38.1754 40.4243 41.5993 40.0871 44.7109 38.7982C47.8225 37.5093 50.4821 35.3267 52.3532 32.5263C54.2244 29.7259 55.2231 26.4336 55.2231 23.0656C55.2188 18.5506 53.4233 14.2218 50.2307 11.0292C47.0381 7.83657 42.7093 6.04107 38.1943 6.03674V6.03674Z" fill="black"/>
<path d="M42.4123 30.4046L38.1776 19.65L33.558 30.4046L28.9629 18.7408L29.7083 18.4459L33.5907 28.2832L38.2104 17.5286L42.4451 28.2832L46.6798 18.4296L47.4251 18.749L42.4123 30.4046Z" fill="black"/>
<path d="M49.5631 23.5652H26.8252V24.3761H49.5631V23.5652Z" fill="black"/>
</svg>
