<svg width="74" height="74" viewBox="0 0 74 74" fill="none" xmlns="http://www.w3.org/2000/svg">
<path d="M36.6952 59.3593C28.7255 59.3593 21.8451 54.5349 21.755 54.4448L22.2137 53.7895C22.3365 53.8796 34.156 62.1524 44.4847 56.64C47.2623 55.1124 49.521 52.7909 50.9719 49.9726L56.9185 38.7838H57.1478C59.4487 38.8163 61.6832 38.012 63.4354 36.5203C65.1877 35.0287 66.3385 32.9514 66.6738 30.6748C67.1571 27.1855 65.5271 24.3351 62.521 23.4177C58.1963 22.099 55.3868 24.3433 53.7977 26.4647C51.8534 29.1121 49.5799 31.5012 47.0321 33.5744L46.1229 34.3034L1.21226 19.4369C2.40813 22.7133 8.27281 35.7532 25.6621 34.7048L25.7112 35.5239C5.23399 36.7525 0.245719 19.1421 0.196573 18.9209L0 18.2001L46 33.4434L46.5734 32.9929C49.0687 30.9596 51.2954 28.6174 53.1998 26.0224C54.9445 23.7044 58.0242 21.2389 62.7913 22.6887C66.1987 23.729 68.0499 26.9234 67.5093 30.8305C67.1557 33.2554 65.9467 35.4741 64.1007 37.0858C62.2546 38.6975 59.8932 39.5961 57.4427 39.6193L51.7091 50.3903C50.1869 53.3522 47.8135 55.7911 44.8942 57.3935C42.3678 58.7221 39.5494 59.3979 36.6952 59.3593V59.3593Z" fill="black"/>
<path d="M21.7468 41.6343C18.8129 41.7198 15.9196 40.933 13.4331 39.3736C8.24822 35.9661 7.49468 30.0032 7.46191 29.7493L8.281 29.6592C8.281 29.7165 9.01817 35.5157 13.8999 38.6692C17.7906 41.2247 23.213 41.4704 30.0114 39.4227L30.2489 40.1926C27.5 41.0838 24.6359 41.5694 21.7468 41.6343V41.6343Z" fill="black"/>
<path d="M29.5206 47.1386H29.2503C23.5904 46.9666 19.1591 41.405 18.9707 41.1592L19.6014 40.6678C19.6505 40.7169 23.9999 46.1802 29.283 46.3359C31.8795 46.4178 34.2795 45.2055 36.4501 42.7565L37.048 43.2889C34.7873 45.8444 32.2481 47.1386 29.5206 47.1386Z" fill="black"/>
<path d="M24.3021 67.5994L10.1318 55.8537L23.999 49.1781L24.343 49.8989L11.6062 56.0339L24.04 66.338L28.6514 57.0905L29.3722 57.4509L24.3021 67.5994Z" fill="black"/>
<path d="M21.7873 64.9291L21.1074 64.5032L25.9482 56.8447L24.4984 56.083L24.8752 55.3786L27.0868 56.5417L21.7873 64.9291Z" fill="black"/>
<path d="M23.4404 54.821L16.2207 59.9329L16.6845 60.588L23.9042 55.4762L23.4404 54.821Z" fill="black"/>
<path d="M66.5258 34.3689L66.1572 33.6563L71.9809 30.683L67.0091 28.6845L67.304 27.9391L73.9222 30.5929L66.5258 34.3689Z" fill="black"/>
<path d="M62.636 29.864C63.1879 29.864 63.6353 29.4166 63.6353 28.8647C63.6353 28.3128 63.1879 27.8654 62.636 27.8654C62.0841 27.8654 61.6367 28.3128 61.6367 28.8647C61.6367 29.4166 62.0841 29.864 62.636 29.864Z" fill="black"/>
<path d="M45.5332 34.0987L17.2419 11.0413C16.9553 13.2775 16.4228 20.5346 20.7804 25.1297L20.1906 25.6785C14.7437 19.9448 16.4802 10.599 16.5539 10.2059L16.6849 9.5506L46.0411 33.4434L45.5332 34.0987Z" fill="black"/>
</svg>
